<svg width="1080" height="1080" viewBox="0 0 1080 1080" fill="none" xmlns="http://www.w3.org/2000/svg">
<circle cx="540" cy="540" r="540" fill="white"/>
<path d="M182.374 651.328C177.053 651.328 172.84 649.887 169.736 647.005C166.854 643.9 165.413 639.688 165.413 634.366V512.642H146.788C142.575 512.642 139.25 511.534 136.811 509.316C134.372 506.877 133.152 503.663 133.152 499.672C133.152 495.459 134.372 492.244 136.811 490.027C139.25 487.81 142.575 486.701 146.788 486.701H175.057L165.413 495.681V483.708C165.413 461.757 170.845 445.239 181.709 434.153C192.573 422.846 208.426 416.194 229.268 414.199L239.578 413.533C243.347 413.09 246.34 413.644 248.558 415.196C250.775 416.748 252.216 418.744 252.881 421.183C253.546 423.622 253.546 426.171 252.881 428.832C252.438 431.271 251.329 433.488 249.555 435.484C247.781 437.479 245.564 438.588 242.904 438.809L236.585 439.142C223.503 440.251 213.969 444.02 207.983 450.45C201.996 456.658 199.003 466.192 199.003 479.052V492.022L194.347 486.701H231.263C235.919 486.701 239.356 487.81 241.573 490.027C244.012 492.244 245.232 495.459 245.232 499.672C245.232 503.663 244.012 506.877 241.573 509.316C239.356 511.534 235.919 512.642 231.263 512.642H199.003V634.366C199.003 645.674 193.46 651.328 182.374 651.328ZM323.388 651.993C306.094 651.993 293.012 647.005 284.144 637.027C275.496 626.828 271.173 612.194 271.173 593.127V429.165C271.173 423.622 272.614 419.409 275.496 416.527C278.379 413.644 282.481 412.203 287.802 412.203C293.123 412.203 297.225 413.644 300.107 416.527C303.211 419.409 304.764 423.622 304.764 429.165V591.131C304.764 602.217 306.981 610.532 311.415 616.075C316.071 621.396 322.723 624.057 331.37 624.057C333.365 624.057 335.139 624.057 336.691 624.057C338.243 623.835 339.795 623.613 341.347 623.391C344.008 623.17 345.893 623.946 347.001 625.719C348.11 627.271 348.664 630.597 348.664 635.697C348.664 640.353 347.666 644.011 345.671 646.672C343.675 649.111 340.46 650.663 336.026 651.328C334.031 651.55 331.924 651.661 329.707 651.661C327.49 651.882 325.383 651.993 323.388 651.993ZM425.628 651.993C409.22 651.993 395.03 648.557 383.058 641.683C371.306 634.81 362.105 625.054 355.453 612.416C348.802 599.778 345.476 584.923 345.476 567.85C345.476 554.769 347.361 543.129 351.13 532.93C354.899 522.73 360.22 513.973 367.094 506.656C374.189 499.117 382.614 493.463 392.37 489.694C402.347 485.703 413.433 483.708 425.628 483.708C441.813 483.708 455.782 487.144 467.533 494.018C479.506 500.891 488.818 510.647 495.47 523.285C502.121 535.701 505.447 550.556 505.447 567.85C505.447 580.71 503.562 592.351 499.793 602.771C496.024 613.192 490.592 622.061 483.497 629.378C476.623 636.695 468.198 642.348 458.221 646.339C448.465 650.109 437.601 651.993 425.628 651.993ZM425.628 626.052C434.718 626.052 442.7 623.835 449.574 619.4C456.447 614.966 461.768 608.425 465.537 599.778C469.528 591.131 471.524 580.489 471.524 567.85C471.524 548.783 467.311 534.371 458.886 524.615C450.46 514.859 439.374 509.982 425.628 509.982C416.316 509.982 408.223 512.199 401.349 516.633C394.476 520.846 389.044 527.276 385.053 535.923C381.284 544.57 379.399 555.212 379.399 567.85C379.399 586.697 383.612 601.108 392.037 611.086C400.463 621.063 411.659 626.052 425.628 626.052ZM582.819 651.328C578.162 651.328 574.061 650.219 570.513 648.002C567.187 645.563 564.527 641.794 562.531 636.695L513.642 507.321C511.868 502.887 511.314 499.006 511.979 495.681C512.644 492.133 514.307 489.362 516.968 487.366C519.85 485.371 523.508 484.373 527.943 484.373C531.934 484.373 535.149 485.371 537.588 487.366C540.248 489.14 542.466 492.687 544.239 498.009L587.807 620.731H579.825L625.056 496.678C626.608 492.466 628.715 489.362 631.375 487.366C634.036 485.371 637.473 484.373 641.685 484.373C645.898 484.373 649.335 485.371 651.995 487.366C654.878 489.362 656.984 492.466 658.314 496.678L702.547 620.731H695.231L739.464 497.344C741.237 492.244 743.455 488.807 746.115 487.034C748.998 485.26 752.213 484.373 755.76 484.373C760.195 484.373 763.52 485.482 765.738 487.699C768.176 489.916 769.507 492.798 769.728 496.346C770.172 499.672 769.618 503.33 768.066 507.321L719.176 636.695C717.181 641.572 714.409 645.231 710.862 647.67C707.536 650.109 703.656 651.328 699.222 651.328C694.565 651.328 690.464 650.109 686.916 647.67C683.59 645.231 680.93 641.572 678.934 636.695L632.373 510.647H649.002L602.773 636.695C601 641.572 598.339 645.231 594.791 647.67C591.466 650.109 587.475 651.328 582.819 651.328ZM835.92 711.192C831.929 711.192 828.603 710.084 825.942 707.867C823.503 705.871 822.062 703.1 821.619 699.552C821.397 696.226 822.062 692.568 823.614 688.577L846.23 637.692V651.993L784.037 507.321C782.485 503.33 781.931 499.561 782.374 496.013C782.818 492.466 784.481 489.694 787.363 487.699C790.245 485.482 794.125 484.373 799.003 484.373C803.216 484.373 806.542 485.371 808.981 487.366C811.42 489.362 813.637 492.798 815.632 497.676L865.852 621.728H856.54L907.424 497.676C909.42 492.577 911.748 489.14 914.409 487.366C917.069 485.371 920.728 484.373 925.384 484.373C929.375 484.373 932.479 485.482 934.696 487.699C937.135 489.694 938.576 492.466 939.019 496.013C939.685 499.339 939.13 502.997 937.357 506.988L854.212 698.222C851.994 703.321 849.445 706.758 846.562 708.532C843.902 710.306 840.354 711.192 835.92 711.192Z" fill="#DF4646"/>
<path d="M832.767 669.879C839.493 646.338 835.169 628.443 830.965 616.432L857.989 633.847C846.779 655.667 826.041 693.42 832.767 669.879Z" fill="#DF4646"/>
<path d="M167.381 464.498C162.096 480.833 149.565 486.918 143.96 487.919H166.18C168.782 473.306 172.665 448.164 167.381 464.498Z" fill="#DF4646"/>
<path d="M592.555 587.006C577.662 584.124 567.133 567.589 564.931 556.98L566.132 585.205L586.55 619.435C594.757 609.826 607.449 589.889 592.555 587.006Z" fill="#DF4646"/>
<path d="M438.82 639.252C438.82 639.252 473.05 614.464 450.23 621.837C419.003 631.926 414.198 585.205 379.368 575.596V621.837L438.82 639.252Z" fill="#DF4646"/>
</svg>
