<svg width="815" height="454" viewBox="0 0 815 454" fill="none" xmlns="http://www.w3.org/2000/svg">
<path d="M50.3741 338.328C45.0528 338.328 40.8401 336.887 37.736 334.005C34.8537 330.9 33.4125 326.688 33.4125 321.366V199.642H14.788C10.5753 199.642 7.24955 198.534 4.81063 196.316C2.37171 193.877 1.15225 190.663 1.15225 186.672C1.15225 182.459 2.37171 179.244 4.81063 177.027C7.24955 174.81 10.5753 173.701 14.788 173.701H43.0573L33.4125 182.681V170.708C33.4125 148.757 38.8446 132.239 49.7089 121.153C60.5732 109.846 76.4262 103.194 97.2679 101.199L107.578 100.533C111.347 100.09 114.34 100.644 116.558 102.196C118.775 103.748 120.216 105.744 120.881 108.183C121.546 110.622 121.546 113.171 120.881 115.832C120.438 118.271 119.329 120.488 117.555 122.484C115.781 124.479 113.564 125.588 110.904 125.809L104.585 126.142C91.5031 127.251 81.9692 131.02 75.9827 137.45C69.9963 143.658 67.0031 153.192 67.0031 166.052V179.022L62.347 173.701H99.2633C103.919 173.701 107.356 174.81 109.573 177.027C112.012 179.244 113.232 182.459 113.232 186.672C113.232 190.663 112.012 193.877 109.573 196.316C107.356 198.534 103.919 199.642 99.2633 199.642H67.0031V321.366C67.0031 332.674 61.4601 338.328 50.3741 338.328ZM191.388 338.993C174.094 338.993 161.012 334.005 152.144 324.027C143.496 313.828 139.173 299.194 139.173 280.127V116.165C139.173 110.622 140.614 106.409 143.496 103.527C146.379 100.644 150.481 99.2031 155.802 99.2031C161.123 99.2031 165.225 100.644 168.107 103.527C171.211 106.409 172.764 110.622 172.764 116.165V278.131C172.764 289.217 174.981 297.532 179.415 303.075C184.071 308.396 190.723 311.057 199.37 311.057C201.365 311.057 203.139 311.057 204.691 311.057C206.243 310.835 207.795 310.613 209.347 310.391C212.008 310.17 213.893 310.946 215.001 312.719C216.11 314.271 216.664 317.597 216.664 322.697C216.664 327.353 215.666 331.011 213.671 333.672C211.675 336.111 208.46 337.663 204.026 338.328C202.031 338.55 199.924 338.661 197.707 338.661C195.49 338.882 193.383 338.993 191.388 338.993ZM293.628 338.993C277.22 338.993 263.03 335.557 251.058 328.683C239.306 321.81 230.105 312.054 223.453 299.416C216.802 286.778 213.476 271.923 213.476 254.85C213.476 241.769 215.361 230.129 219.13 219.93C222.899 209.73 228.22 200.973 235.094 193.656C242.189 186.117 250.614 180.463 260.37 176.694C270.347 172.703 281.433 170.708 293.628 170.708C309.813 170.708 323.782 174.144 335.533 181.018C347.506 187.891 356.818 197.647 363.47 210.285C370.121 222.701 373.447 237.556 373.447 254.85C373.447 267.71 371.562 279.351 367.793 289.771C364.024 300.192 358.592 309.061 351.497 316.378C344.623 323.695 336.198 329.348 326.221 333.339C316.465 337.109 305.601 338.993 293.628 338.993ZM293.628 313.052C302.718 313.052 310.7 310.835 317.574 306.4C324.447 301.966 329.768 295.425 333.537 286.778C337.528 278.131 339.524 267.489 339.524 254.85C339.524 235.783 335.311 221.371 326.886 211.615C318.46 201.859 307.374 196.982 293.628 196.982C284.316 196.982 276.223 199.199 269.349 203.633C262.476 207.846 257.044 214.276 253.053 222.923C249.284 231.57 247.399 242.212 247.399 254.85C247.399 273.697 251.612 288.108 260.037 298.086C268.463 308.063 279.659 313.052 293.628 313.052ZM450.819 338.328C446.162 338.328 442.061 337.219 438.513 335.002C435.187 332.563 432.527 328.794 430.531 323.695L381.642 194.321C379.868 189.887 379.314 186.006 379.979 182.681C380.644 179.133 382.307 176.362 384.968 174.366C387.85 172.371 391.508 171.373 395.943 171.373C399.934 171.373 403.149 172.371 405.588 174.366C408.248 176.14 410.466 179.687 412.239 185.009L455.807 307.731H447.825L493.056 183.678C494.608 179.466 496.715 176.362 499.375 174.366C502.036 172.371 505.473 171.373 509.685 171.373C513.898 171.373 517.335 172.371 519.995 174.366C522.878 176.362 524.984 179.466 526.314 183.678L570.547 307.731H563.231L607.464 184.344C609.237 179.244 611.455 175.807 614.115 174.034C616.998 172.26 620.213 171.373 623.76 171.373C628.195 171.373 631.52 172.482 633.738 174.699C636.176 176.916 637.507 179.798 637.728 183.346C638.172 186.672 637.618 190.33 636.066 194.321L587.176 323.695C585.181 328.572 582.409 332.231 578.862 334.67C575.536 337.109 571.656 338.328 567.222 338.328C562.565 338.328 558.464 337.109 554.916 334.67C551.59 332.231 548.93 328.572 546.934 323.695L500.373 197.647H517.002L470.773 323.695C469 328.572 466.339 332.231 462.791 334.67C459.466 337.109 455.475 338.328 450.819 338.328ZM703.92 398.192C699.929 398.192 696.603 397.084 693.942 394.867C691.503 392.871 690.062 390.1 689.619 386.552C689.397 383.226 690.062 379.568 691.614 375.577L714.23 324.692V338.993L652.037 194.321C650.485 190.33 649.931 186.561 650.374 183.013C650.818 179.466 652.481 176.694 655.363 174.699C658.245 172.482 662.125 171.373 667.003 171.373C671.216 171.373 674.542 172.371 676.981 174.366C679.42 176.362 681.637 179.798 683.632 184.676L733.852 308.728H724.54L775.424 184.676C777.42 179.577 779.748 176.14 782.409 174.366C785.069 172.371 788.728 171.373 793.384 171.373C797.375 171.373 800.479 172.482 802.696 174.699C805.135 176.694 806.576 179.466 807.019 183.013C807.685 186.339 807.13 189.997 805.357 193.988L722.212 385.222C719.994 390.321 717.445 393.758 714.562 395.532C711.902 397.306 708.354 398.192 703.92 398.192Z" fill="#DF4646"/>
<path d="M700.767 356.879C707.493 333.338 703.169 315.443 698.965 303.432L725.989 320.847C714.779 342.667 694.041 380.42 700.767 356.879Z" fill="#DF4646"/>
<path d="M35.3807 151.498C30.0961 167.833 17.565 173.918 11.9601 174.919H34.1797C36.782 160.306 40.6654 135.164 35.3807 151.498Z" fill="#DF4646"/>
<path d="M460.555 274.006C445.662 271.124 435.133 254.589 432.931 243.98L434.132 272.205L454.55 306.435C462.757 296.826 475.448 276.889 460.555 274.006Z" fill="#DF4646"/>
<path d="M306.82 326.252C306.82 326.252 341.05 301.464 318.23 308.837C287.002 318.926 282.198 272.205 247.367 262.596V308.837L306.82 326.252Z" fill="#DF4646"/>
</svg>
